<?xml version="1.0" standalone="no"?>
<!DOCTYPE svg PUBLIC "-//W3C//DTD SVG 20010904//EN"
 "http://www.w3.org/TR/2001/REC-SVG-20010904/DTD/svg10.dtd">
<svg version="1.0" xmlns="http://www.w3.org/2000/svg"
 width="916.000000pt" height="916.000000pt" viewBox="0 0 916.000000 916.000000"
 preserveAspectRatio="xMidYMid meet">
<metadata>
Created by potrace 1.14, written by Peter Selinger 2001-2017
</metadata>
<g transform="translate(0.000000,916.000000) scale(0.100000,-0.100000)"
fill="#000000" stroke="none">
<path d="M4317 8930 c-3 -8 -26 -82 -52 -165 -140 -449 -380 -994 -626 -1419
-40 -71 -85 -147 -98 -170 -55 -95 -301 -459 -313 -464 -5 -2 -8 -8 -8 -13 0
-5 -28 -48 -62 -94 -35 -46 -85 -115 -113 -152 -27 -37 -88 -120 -134 -183
-47 -63 -145 -198 -217 -300 -73 -102 -137 -190 -141 -195 -31 -39 -173 -255
-173 -263 0 -6 -4 -12 -8 -14 -13 -5 -252 -398 -252 -415 0 -2 -9 -17 -19 -31
-10 -15 -20 -31 -21 -37 -1 -5 -17 -37 -35 -70 -54 -96 -158 -320 -208 -445
-53 -134 -137 -393 -152 -470 -2 -8 -12 -55 -23 -105 -19 -83 -30 -138 -38
-190 -1 -11 -8 -54 -14 -95 -38 -262 -34 -734 10 -965 5 -27 12 -63 15 -80 11
-68 17 -94 40 -185 109 -428 303 -814 589 -1170 66 -82 269 -289 356 -361 440
-370 957 -583 1515 -627 442 -35 911 56 1320 254 164 79 434 248 507 317 7 7
40 34 73 62 66 55 236 222 304 300 77 88 271 353 271 370 0 2 13 24 29 48 27
39 135 248 174 337 63 140 157 427 182 555 58 296 70 409 70 690 0 187 -8 356
-21 418 -2 12 -6 40 -8 62 -4 35 -13 85 -31 178 -3 15 -7 39 -10 55 -18 93
-89 356 -112 412 -4 8 -7 18 -7 22 -1 3 -4 10 -8 14 -5 4 -8 17 -8 28 0 12 -8
33 -17 46 -10 14 -16 26 -14 28 5 5 -59 159 -119 287 -45 95 -197 373 -255
466 -5 9 -20 34 -32 55 -13 22 -33 55 -45 75 -13 20 -38 63 -57 95 -19 33 -37
61 -40 64 -6 5 -97 140 -116 172 -22 37 -140 204 -157 222 -10 11 -18 23 -18
26 0 3 -56 82 -125 175 -69 94 -131 179 -139 190 -8 11 -41 56 -74 100 -32 44
-100 139 -152 210 -51 72 -104 145 -118 163 -47 65 -220 329 -277 422 -69 114
-68 112 -187 325 -90 161 -258 511 -330 690 -22 55 -46 114 -53 130 -22 54
-87 226 -89 238 -2 7 -8 23 -13 37 -13 32 -100 308 -106 335 -3 15 -5 17 -10
5z"/>
</g>
</svg>
